<?xml version="1.0" standalone="no"?><!DOCTYPE svg PUBLIC "-//W3C//DTD SVG 1.1//EN" "http://www.w3.org/Graphics/SVG/1.1/DTD/svg11.dtd"><svg t="1699705201077" class="icon" viewBox="0 0 1024 1024" version="1.1" xmlns="http://www.w3.org/2000/svg" p-id="18037" xmlns:xlink="http://www.w3.org/1999/xlink" width="200" height="200"><path d="M725.333333 512a213.333333 213.333333 0 1 1-213.333333-213.333333 213.333333 213.333333 0 0 1 213.333333 213.333333z m-234.666666-298.666667h42.666666a21.333333 21.333333 0 0 0 21.333334-21.333333v-42.666667a21.333333 21.333333 0 0 0-21.333334-21.333333h-42.666666a21.333333 21.333333 0 0 0-21.333334 21.333333v42.666667a21.333333 21.333333 0 0 0 21.333334 21.333333z m42.666666 597.333334h-42.666666a21.333333 21.333333 0 0 0-21.333334 21.333333v42.666667a21.333333 21.333333 0 0 0 21.333334 21.333333h42.666666a21.333333 21.333333 0 0 0 21.333334-21.333333v-42.666667a21.333333 21.333333 0 0 0-21.333334-21.333333z m341.333334-341.333334h-42.666667a21.333333 21.333333 0 0 0-21.333333 21.333334v42.666666a21.333333 21.333333 0 0 0 21.333333 21.333334h42.666667a21.333333 21.333333 0 0 0 21.333333-21.333334v-42.666666a21.333333 21.333333 0 0 0-21.333333-21.333334z m-682.666667 0h-42.666667a21.333333 21.333333 0 0 0-21.333333 21.333334v42.666666a21.333333 21.333333 0 0 0 21.333333 21.333334h42.666667a21.333333 21.333333 0 0 0 21.333333-21.333334v-42.666666a21.333333 21.333333 0 0 0-21.333333-21.333334zM768 225.28a21.76 21.76 0 0 0-30.293333 0L708.266667 256a21.333333 21.333333 0 0 0 0 30.293333l29.866666 29.866667a21.333333 21.333333 0 0 0 30.293334 0l30.293333-29.866667a21.76 21.76 0 0 0 0-30.293333zM285.866667 708.266667a21.333333 21.333333 0 0 0-30.293334 0l-30.293333 29.866666a21.76 21.76 0 0 0 0 30.293334l30.293333 30.293333a21.76 21.76 0 0 0 30.293334 0l29.866666-30.72a21.333333 21.333333 0 0 0 0-30.293333z m482.133333 0a21.333333 21.333333 0 0 0-30.293333 0l-29.866667 29.866666a21.333333 21.333333 0 0 0 0 30.293334l29.866667 30.293333a21.76 21.76 0 0 0 30.293333 0l30.293333-30.293333a21.76 21.76 0 0 0 0-30.293334zM256 315.733333a21.333333 21.333333 0 0 0 30.293333 0l29.866667-29.866666A21.333333 21.333333 0 0 0 315.733333 256l-29.866666-30.293333a21.76 21.76 0 0 0-30.293334 0L225.28 256a21.76 21.76 0 0 0 0 30.293333z" p-id="18038"></path></svg>